<svg width="158" height="158" viewBox="0 0 158 158" fill="none" xmlns="http://www.w3.org/2000/svg">
<path d="M142.635 0H15.3647C6.88429 0 0 6.88429 0 15.3647V142.635C0 151.116 6.88429 158 15.3647 158H89.8182V97.7665H69.5361V74.2922H89.802V56.9767C89.802 36.8882 102.071 25.941 119.983 25.941C128.577 25.941 135.944 26.5859 138.089 26.86V47.8514H125.674C115.937 47.8514 114.034 52.4786 114.034 59.2822V74.2761H137.283L134.252 97.7504H114.05V158H142.635C151.116 158 158 151.116 158 142.635V15.3647C158 6.88429 151.116 0 142.635 0Z" fill="#D3C37B"/>
</svg>
