<svg width="76" height="76" viewBox="0 0 76 76" fill="none" xmlns="http://www.w3.org/2000/svg">
<circle cx="38" cy="38" r="36.5" fill="white" stroke="#C09628" stroke-width="3"/>
<path d="M59.5747 51.3038L59.5749 51.3036C59.8725 50.9487 60.1049 50.5318 60.2623 50.0786C60.4197 49.6252 60.5 49.1416 60.5 48.6547C60.5 48.1679 60.4197 47.6843 60.2623 47.2309C60.1049 46.7776 59.8725 46.3608 59.5749 46.0059L40.857 23.644C40.5596 23.2886 40.2017 23.001 39.8009 22.8026C39.3996 22.604 38.9653 22.5 38.5238 22.5C38.0823 22.5 37.6481 22.604 37.2468 22.8026L37.4685 23.2508L37.2468 22.8026C36.8459 23.001 36.488 23.2886 36.1907 23.644L17.4763 46.0017C17.1683 46.353 16.926 46.7693 16.7598 47.2244C16.5929 47.6816 16.5051 48.1716 16.5002 48.666C16.4953 49.1605 16.5732 49.6526 16.7308 50.114C16.8884 50.5754 17.1235 50.9996 17.4258 51.3599C17.7283 51.7203 18.0931 52.0107 18.5018 52.2087C18.9109 52.4068 19.3532 52.5069 19.8016 52.4996C20.2499 52.4923 20.6893 52.3778 21.0928 52.1668C21.4941 51.957 21.8499 51.6573 22.1426 51.2902L38.5238 31.7182L54.9084 51.2942C54.9085 51.2944 54.9086 51.2945 54.9088 51.2947C55.2055 51.6504 55.5628 51.9386 55.9631 52.1377L56.1858 51.69L55.9631 52.1377C56.3641 52.3371 56.7981 52.4421 57.2396 52.443C57.6811 52.4439 58.1156 52.3408 58.5172 52.143C58.9184 51.9455 59.2768 51.6586 59.5747 51.3038Z" fill="#C09628" stroke="white"/>
</svg>
