<svg width="68" height="66" viewBox="0 0 68 66" fill="none" xmlns="http://www.w3.org/2000/svg">
<path d="M66.2783 41.88L66.1565 38.88L50.2609 39.36L44.4348 36.48V29.52L50.2261 26.64L66.1217 27.12L66.2435 24.12L55.8087 23.805L67.8783 17.805L66.1391 15.195L54.0696 21.195L58.9217 13.32L55.9826 12L48.5217 24L42.6956 27L35.7391 23.52V17.685L44.1739 6L41.2174 4.5L35.7391 12V0H32.2609V12L26.7826 4.5L23.8261 6L32.2609 17.685V23.445L25.3043 27L19.4783 24L12.0174 12L8.95652 13.41L13.8087 21.285L1.73913 15.285L0 17.895L12.0696 23.895L1.72174 24.21L1.84348 27.21L17.7391 26.73L23.5652 29.52V36.48L17.7739 39.36L1.87826 38.88L1.75652 41.88L12.1043 42.195L0.0347801 48.195L1.77391 50.805L13.8435 44.805L8.95652 52.665L12.0174 54.075L19.4783 42L25.3043 39.075L32.2609 42.555V48.315L23.8261 60L26.7826 61.5L32.2609 54V66H35.7391V54L41.2174 61.5L44.1739 60L35.7391 48.315V42.555L42.6956 39.075L48.5217 42L55.9826 54.12L59.0435 52.71L54.1913 44.835L66.2609 50.835L68 48.225L55.9304 42.225L66.2783 41.88ZM41.0435 36.51L34.087 40.005L27.1304 36.51V29.49L34.087 25.995L41.0435 29.49V36.51Z" fill="#C09628"/>
</svg>
