<svg width="157" height="157" viewBox="0 0 157 157" fill="none" xmlns="http://www.w3.org/2000/svg">
<path d="M133.936 0H22.864C10.256 0 0 10.272 0 22.88V133.92C0 146.528 10.256 156.8 22.864 156.8H133.92C146.528 156.8 156.784 146.544 156.784 133.92V22.88C156.8 10.272 146.544 0 133.936 0ZM22.864 11.68H133.92C140.096 11.68 145.104 16.704 145.104 22.896V54.432H113.008C105.392 43.472 92.72 36.272 78.4 36.272C64.08 36.272 51.408 43.456 43.808 54.416H11.68V22.88C11.68 16.704 16.704 11.68 22.864 11.68ZM78.4 47.952C95.184 47.952 108.848 61.616 108.848 78.4C108.848 95.184 95.184 108.848 78.4 108.848C61.616 108.848 47.952 95.184 47.952 78.4C47.952 61.616 61.616 47.952 78.4 47.952ZM133.936 145.12H22.864C16.688 145.12 11.664 140.096 11.664 133.92V66.096H38.112C36.928 69.984 36.272 74.112 36.272 78.4C36.272 101.632 55.168 120.528 78.4 120.528C101.632 120.528 120.528 101.632 120.528 78.4C120.528 74.128 119.888 70 118.688 66.096H145.12V133.92C145.12 140.096 140.112 145.12 133.936 145.12Z" fill="#D3C37B"/>
<path d="M118 44.64H132.72C135.952 44.64 138.56 42.032 138.56 38.8C138.56 35.568 135.936 32.96 132.72 32.96H123.84V24.08C123.84 20.848 121.232 18.24 118 18.24C114.768 18.24 112.16 20.864 112.16 24.08V38.8C112.16 42.032 114.768 44.64 118 44.64Z" fill="#D3C37B"/>
</svg>
