<svg width="342" height="342" viewBox="0 0 342 342" fill="none" xmlns="http://www.w3.org/2000/svg">
<path d="M34.2 68.4H307.8C326.688 68.4 342 53.0875 342 34.2C342 15.3125 326.688 0 307.8 0H34.2C15.3125 0 0 15.3125 0 34.2C0 53.0875 15.3125 68.4 34.2 68.4Z" fill="#D3C37B"/>
<path d="M307.8 136.8H34.2C15.3125 136.8 0 152.112 0 171C0 189.887 15.3125 205.2 34.2 205.2H307.8C326.688 205.2 342 189.887 342 171C342 152.112 326.688 136.8 307.8 136.8Z" fill="#D3C37B"/>
<path d="M307.8 273.6H34.2C15.3125 273.6 0 288.913 0 307.8C0 326.688 15.3125 342 34.2 342H307.8C326.688 342 342 326.688 342 307.8C342 288.913 326.688 273.6 307.8 273.6Z" fill="#D3C37B"/>
</svg>
