<svg width="104" height="66" viewBox="0 0 104 66" fill="none" xmlns="http://www.w3.org/2000/svg">
<path d="M0.980571 62.9991C7.72171 65.0545 14.8273 66.0689 21.9737 65.9964C32.1806 65.9964 42.3429 64.2598 52.2823 62.5617C68.6251 59.7703 85.5474 56.8888 102.009 62.0215C102.233 62.0917 102.474 62.1141 102.71 62.0868C102.947 62.0596 103.172 61.9834 103.368 61.8648C103.563 61.7462 103.722 61.5887 103.832 61.4055C103.942 61.2223 104 61.0188 104 60.8123V14.5028C104 14.2385 103.906 13.9806 103.73 13.7642C103.555 13.5478 103.307 13.3835 103.019 13.2936C85.7851 7.90373 68.4617 10.8624 51.7177 13.731C35.3749 16.5224 18.4377 19.4039 1.99086 14.2713C1.76655 14.2011 1.52601 14.1786 1.28957 14.2059C1.05314 14.2332 0.827762 14.3093 0.632494 14.4279C0.437227 14.5465 0.277811 14.7041 0.16772 14.8873C0.0576291 15.0705 0.000101468 15.274 0 15.4805V61.7899C0.00012991 62.0543 0.0943321 62.3122 0.269787 62.5286C0.445241 62.7449 0.693427 62.9092 0.980571 62.9991ZM2.97143 17.2685C19.5371 21.8352 36.1771 19.0051 52.2823 16.2523C68.3874 13.4995 84.8937 10.6952 101.029 15.4162V59.0242C84.4629 54.4576 67.8229 57.2876 51.7177 60.0404C35.6126 62.7933 19.1063 65.5976 2.97143 60.8766V17.2685ZM10.6674 11.1325C24.2617 13.2679 38.2126 10.8881 51.7177 8.55978C65.4903 6.20572 79.7234 3.77448 93.8674 5.98704C94.2615 6.04845 94.6112 6.24287 94.8397 6.52754C95.0681 6.8122 95.1566 7.16379 95.0857 7.50496C95.0148 7.84613 94.7902 8.14893 94.4615 8.34674C94.1327 8.54456 93.7266 8.62119 93.3326 8.55978C79.7383 6.4244 65.7874 8.8042 52.2823 11.1325C42.3429 12.8305 32.1509 14.5671 21.944 14.5671C17.985 14.5868 14.0319 14.2983 10.1326 13.7053C9.73853 13.6439 9.38881 13.4494 9.16034 13.1648C8.93187 12.8801 8.84336 12.5285 8.91429 12.1874C8.98521 11.8462 9.20976 11.5434 9.53854 11.3456C9.86732 11.1478 10.2734 11.0711 10.6674 11.1325ZM51.7177 3.41429C62.504 1.6005 73.6766 -0.316194 84.6857 0.0439911C85.0798 0.0439911 85.4576 0.179521 85.7363 0.420763C86.0149 0.662004 86.1714 0.989197 86.1714 1.33036C86.1714 1.67153 86.0149 1.99873 85.7363 2.23997C85.4576 2.48121 85.0798 2.61674 84.6857 2.61674C73.9589 2.28228 62.9646 4.16039 52.3417 5.97417C42.4171 7.67219 32.1954 9.40879 22.0034 9.40879C21.1021 9.40879 20.2057 9.40879 19.3143 9.40879C18.9202 9.40879 18.5424 9.27326 18.2637 9.03202C17.9851 8.79078 17.8286 8.46358 17.8286 8.12242C17.8286 7.78125 17.9851 7.45405 18.2637 7.21281C18.5424 6.97157 18.9202 6.83604 19.3143 6.83604C30.1006 7.11905 41.08 5.2538 51.7177 3.41429ZM52.2971 53.5829C62.4 51.8205 72.9189 50.0325 83.2 50.174C83.398 50.1767 83.5947 50.145 83.7784 50.081C83.9621 50.0169 84.1291 49.9217 84.2697 49.8009C84.4101 49.6818 84.5218 49.5397 84.5983 49.3829C84.6748 49.2262 84.7146 49.0578 84.7154 48.8876C84.702 48.0129 84.9076 47.146 85.3179 46.3466C85.7283 45.5472 86.3337 44.8342 87.0926 44.2566C87.749 43.7664 88.5214 43.4064 89.3555 43.202C90.1896 42.9975 91.0653 42.9536 91.9212 43.0732C92.1341 43.1012 92.3515 43.0887 92.5583 43.0367C92.7652 42.9847 92.9565 42.8944 93.119 42.7721C93.2815 42.6497 93.4114 42.4982 93.4995 42.3281C93.5877 42.158 93.6321 41.9733 93.6297 41.7868V28.9231C93.6338 28.6129 93.5082 28.3118 93.2761 28.0754C93.0441 27.839 92.7211 27.6832 92.3669 27.6367C90.3326 27.4335 88.4465 26.6148 87.0412 25.3251C85.6359 24.0355 84.8017 22.3576 84.6857 20.5874C84.6857 20.2462 84.5292 19.919 84.2506 19.6778C83.9719 19.4365 83.594 19.301 83.2 19.301C72.6366 19.1595 61.984 20.9733 51.688 22.7356C41.392 24.498 31.0811 26.2603 20.8 26.1188C20.4021 26.1228 20.0204 26.2559 19.7303 26.4918C19.5899 26.611 19.4782 26.753 19.4017 26.9098C19.3252 27.0666 19.2854 27.235 19.2846 27.4052C19.298 28.2799 19.0924 29.1467 18.6821 29.9461C18.2717 30.7456 17.6663 31.4585 16.9074 32.0361C16.251 32.5264 15.4786 32.8863 14.6445 33.0908C13.8104 33.2952 12.9347 33.3392 12.0789 33.2196C11.8659 33.1916 11.6485 33.204 11.4417 33.256C11.2348 33.308 11.0435 33.3983 10.881 33.5207C10.7185 33.643 10.5886 33.7945 10.5004 33.9646C10.4123 34.1348 10.3678 34.3195 10.3703 34.5059V47.3697C10.3662 47.6799 10.4918 47.9809 10.7239 48.2173C10.9559 48.4537 11.2789 48.6095 11.6331 48.656C13.6674 48.8593 15.5535 49.6779 16.9588 50.9676C18.3641 52.2573 19.1983 53.9352 19.3143 55.7054C19.3143 56.0465 19.4708 56.3737 19.7494 56.615C20.0281 56.8562 20.406 56.9917 20.8 56.9917H21.9886C32.136 57.0046 42.3726 55.2551 52.2823 53.5829H52.2971ZM13.3714 46.302V35.8438C15.397 35.7879 17.3385 35.1292 18.8686 33.9785C20.6768 32.6223 21.8543 30.7434 22.1817 28.6915C32.2846 28.6915 42.4469 26.9292 52.2971 25.2569C62.1474 23.5846 72.0126 21.8866 81.8331 21.8609C82.2019 23.8187 83.2352 25.6373 84.8015 27.0851C86.3678 28.5328 88.3962 29.5443 90.6286 29.9908V40.449C88.603 40.5048 86.6615 41.1636 85.1314 42.3142C83.3232 43.6704 82.1457 45.5494 81.8183 47.6012C71.7154 47.6012 61.5531 49.3635 51.7029 51.0358C41.8526 52.7081 31.9874 54.4061 22.1669 54.4319C21.7981 52.474 20.7648 50.6554 19.1985 49.2077C17.6322 47.7599 15.6038 46.7484 13.3714 46.302ZM45.7749 44.5782C47.1176 45.5112 48.7928 46.0113 50.5143 45.9933C51.1071 46.0014 51.6994 45.9583 52.2823 45.8646C54.6809 45.4227 56.8375 44.2936 58.4037 42.6597C59.9699 41.0259 60.8544 38.9827 60.9143 36.86C60.9401 35.8827 60.7118 34.9128 60.2464 34.0222C59.7809 33.1315 59.0901 32.3428 58.2251 31.7145C57.3199 31.089 56.2632 30.6484 55.1339 30.4257C54.0046 30.2029 52.8317 30.2038 51.7029 30.4281C49.307 30.8726 47.1538 32.0028 45.5905 33.6364C44.0272 35.27 43.1448 37.3119 43.0857 39.4327C43.0599 40.4101 43.2882 41.3799 43.7536 42.2706C44.2191 43.1613 44.9099 43.9499 45.7749 44.5782ZM52.2971 33.0009C52.6873 32.9235 53.0855 32.8804 53.4857 32.8722C54.5621 32.835 55.6177 33.1366 56.4571 33.7213C56.9552 34.1182 57.3465 34.6052 57.6032 35.1475C57.86 35.6899 57.9759 36.2745 57.9429 36.86C57.8695 38.3764 57.2194 39.8292 56.0935 40.9925C54.9676 42.1557 53.4292 42.9641 51.7177 43.2919C51.0203 43.4389 50.2936 43.4482 49.5915 43.3191C48.8894 43.1899 48.2298 42.9256 47.6617 42.5458C47.146 42.1612 46.7347 41.6828 46.4573 41.1446C46.1799 40.6065 46.0433 40.0219 46.0571 39.4327C46.1305 37.9164 46.7806 36.4635 47.9065 35.3003C49.0324 34.137 50.5708 33.3286 52.2823 33.0009H52.2971ZM29.848 42.5329C27.1589 42.7387 24.6331 42.8416 22.1669 42.8545C21.7728 42.8545 21.3949 42.719 21.1163 42.4777C20.8377 42.2365 20.6811 41.9093 20.6811 41.5681C20.6811 41.227 20.8377 40.8998 21.1163 40.6585C21.3949 40.4173 21.7728 40.2818 22.1669 40.2818C24.5589 40.2818 26.9806 40.1788 29.5954 39.973C29.9895 39.9423 30.3814 40.0484 30.6851 40.2679C30.9889 40.4875 31.1794 40.8025 31.2149 41.1436C31.2503 41.4848 31.1278 41.8242 30.8743 42.0871C30.6207 42.3501 30.2569 42.5151 29.8629 42.5458L29.848 42.5329ZM72.6811 35.162C72.6628 34.9929 72.6832 34.8224 72.7414 34.6602C72.7995 34.498 72.8941 34.3474 73.0198 34.2171C73.1455 34.0867 73.2998 33.9792 73.4737 33.9007C73.6476 33.8223 73.8377 33.7744 74.0331 33.7598C76.7371 33.554 79.248 33.4382 81.7143 33.4382C82.1083 33.4382 82.4862 33.5738 82.7648 33.815C83.0435 34.0563 83.2 34.3835 83.2 34.7246C83.2 35.0658 83.0435 35.393 82.7648 35.6342C82.4862 35.8755 82.1083 36.011 81.7143 36.011C79.3371 36.011 76.9006 36.1268 74.2857 36.3326H74.152C73.7826 36.3307 73.4273 36.2097 73.1554 35.9933C72.8835 35.7769 72.7144 35.4805 72.6811 35.162Z" fill="#C09628"/>
</svg>
