<svg width="133" height="66" viewBox="0 0 133 66" fill="none" xmlns="http://www.w3.org/2000/svg">
<path d="M20.2798 35.6729H1.67164C0.756944 35.6729 0.0175781 36.3622 0.0175781 37.2149C0.0175781 38.0677 0.756944 38.757 1.67164 38.757H20.2798C21.1945 38.757 21.9339 38.0677 21.9339 37.2149C21.9339 36.3622 21.1945 35.6729 20.2798 35.6729Z" fill="#C09628"/>
<path d="M18.2238 47.5332H16.3084C15.3937 47.5332 14.6544 48.2225 14.6544 49.0753C14.6544 49.928 15.3937 50.6173 16.3084 50.6173H18.2238C19.1385 50.6173 19.8779 49.928 19.8779 49.0753C19.8779 48.2225 19.1385 47.5332 18.2238 47.5332Z" fill="#C09628"/>
<path d="M132.799 38.2421L116.692 21.7836H97.513V11.0616H56.3781C53.2635 4.56637 46.2817 0.0234375 38.1702 0.0234375C27.1723 0.0234375 18.2222 8.36603 18.2222 18.6208C18.2222 28.1631 25.9764 36.0415 35.9174 37.0901V47.5346H23.5036C22.5889 47.5346 21.8496 48.2239 21.8496 49.0766C21.8496 49.9294 22.5889 50.6187 23.5036 50.6187H35.9174V59.2265H43.6517C44.2207 62.9105 47.5934 65.7587 51.6971 65.7587C55.8025 65.7587 59.1751 62.909 59.7441 59.2265H94.2032H97.5113H105.983C106.552 62.9105 109.925 65.7587 114.03 65.7587C118.134 65.7587 121.508 62.909 122.076 59.2265H132.796V38.2421H132.799ZM21.5303 18.6192C21.5303 10.0654 28.9951 3.10603 38.1702 3.10603C47.3453 3.10603 54.81 10.0654 54.81 18.6192C54.81 27.1731 47.3453 34.1324 38.1702 34.1324C28.9951 34.1324 21.5303 27.1715 21.5303 18.6192ZM51.6971 62.673C49.0208 62.673 46.8424 60.6437 46.8424 58.1455C46.8424 55.652 49.0192 53.6211 51.6971 53.6211C54.375 53.6211 56.5534 55.6505 56.5534 58.1455C56.5534 60.6437 54.3767 62.673 51.6971 62.673ZM94.2048 56.1408H59.5374C58.5863 52.921 55.4502 50.5385 51.6987 50.5385C47.9473 50.5385 44.8129 52.921 43.8618 56.1408H39.2271V37.1657C49.7337 36.6476 58.1182 28.5394 58.1182 18.6177C58.1182 17.0725 57.8916 15.5798 57.5111 14.1442H94.2065V21.782V56.1408H94.2048ZM114.032 62.673C111.354 62.673 109.176 60.6437 109.176 58.1455C109.176 55.652 111.352 53.6211 114.032 53.6211C116.708 53.6211 118.887 55.6505 118.887 58.1455C118.887 60.6437 116.708 62.673 114.032 62.673ZM129.491 56.1408H121.869C120.918 52.921 117.782 50.5385 114.032 50.5385C110.279 50.5385 107.145 52.921 106.193 56.1408H97.513V24.8662H115.231L129.491 39.4372V56.1408Z" fill="#C09628"/>
<path d="M5.06901 24.2213H14.5898C15.5045 24.2213 16.2439 23.5305 16.2439 22.6793C16.2439 21.8265 15.5045 21.1372 14.5898 21.1372H5.06901C4.15431 21.1372 3.41495 21.8265 3.41495 22.6793C3.41495 23.5305 4.15431 24.2213 5.06901 24.2213Z" fill="#C09628"/>
<path d="M37.8625 20.8477C37.9535 20.9048 38.0312 20.9772 38.1305 21.0158C38.329 21.0944 38.5473 21.1376 38.7756 21.1376H48.2963C49.211 21.1376 49.9504 20.4468 49.9504 19.5955C49.9504 18.7428 49.211 18.0535 48.2963 18.0535H40.4296V6.28132C40.4296 5.42856 39.6902 4.73926 38.7756 4.73926C37.8625 4.73926 37.1215 5.42856 37.1215 6.28132V19.5955C37.1215 19.8083 37.1678 20.0119 37.2522 20.1969C37.2935 20.291 37.3713 20.3619 37.4325 20.4468C37.4903 20.5269 37.5334 20.6179 37.6045 20.6858C37.6756 20.7536 37.7765 20.7937 37.8625 20.8477Z" fill="#C09628"/>
</svg>
