<svg width="79" height="66" viewBox="0 0 79 66" fill="none" xmlns="http://www.w3.org/2000/svg">
<path d="M78.0119 19.2174V13.4592C78.0119 13.3221 78.0119 13.185 77.8512 13.0479C77.8512 13.0479 77.8512 13.0479 77.8512 12.9108C77.8512 12.7737 77.6904 12.7737 77.6904 12.6366L67.0797 0.571836C66.7581 0.160537 66.2758 0.0234375 65.7935 0.0234375H55.1828H44.5721H33.9613H23.3506H13.0614C12.5791 0.0234375 12.0968 0.160537 11.7753 0.571836L1.16455 12.6366C1.16455 12.7737 1.00379 12.7737 1.00379 12.9108C1.00379 12.9108 1.00379 12.9108 1.00379 13.0479C1.00379 13.185 0.843018 13.3221 0.843018 13.4592V19.2174C0.843018 21.5481 2.12917 23.7417 4.21916 25.1127C4.05839 25.2498 4.05839 25.524 4.05839 25.6611V63.0893H2.4507C1.48609 63.0893 0.843018 63.6377 0.843018 64.4603C0.843018 65.2829 1.48609 65.8313 2.4507 65.8313H5.66607H14.3476H34.1221H73.1889H76.4042C77.3689 65.8313 78.0119 65.2829 78.0119 64.4603C78.0119 63.6377 77.3689 63.0893 76.4042 63.0893H74.7966V25.524C74.7966 25.3869 74.7966 25.2498 74.6358 25.1127C76.7258 23.7417 78.0119 21.5481 78.0119 19.2174ZM73.1889 12.0882H62.7389L57.9159 3.03963L57.7551 2.90253H64.9897L73.1889 12.0882ZM30.4244 19.2174C30.4244 21.9594 27.8521 24.153 24.6368 24.153C21.4214 24.153 18.8491 21.9594 18.8491 19.2174V14.8302H30.4244V19.2174ZM24.6368 2.76543H32.3537L30.746 12.0882H19.8137L19.9745 11.9511L24.6368 2.76543ZM54.2182 2.76543L59.0412 11.814L59.202 11.9511H48.2697L46.6621 2.62833H54.2182V2.76543ZM44.8936 12.0882H33.8006L35.4083 2.76543H43.1251L44.8936 12.0882ZM33.6398 14.8302H45.2151V19.2174C45.2151 21.9594 42.6428 24.153 39.4275 24.153C36.2121 24.153 33.6398 21.9594 33.6398 19.2174V14.8302ZM48.4305 14.8302H60.0058V19.2174C60.0058 21.9594 57.4336 24.153 54.2182 24.153C51.0028 24.153 48.4305 21.9594 48.4305 19.2174V14.8302ZM13.8653 2.76543H21.0999L20.9391 2.90253L16.116 11.9511H5.66607L13.8653 2.76543ZM4.05839 14.8302H15.6337V19.2174C15.6337 21.9594 13.0614 24.153 9.84606 24.153C6.63069 24.153 4.05839 21.9594 4.05839 19.2174V14.8302ZM15.9553 63.0893V34.5725H32.5144V63.0893H15.9553ZM71.5812 63.0893H35.7298V33.2016C35.7298 32.379 35.0867 31.8306 34.1221 31.8306H14.3476C13.383 31.8306 12.7399 32.379 12.7399 33.2016V63.0893H7.27376V26.4837C8.0776 26.7579 8.88145 26.895 9.84606 26.895C12.9007 26.895 15.6337 25.524 17.2414 23.6046C18.8491 25.6611 21.5822 26.895 24.6368 26.895C27.6914 26.895 30.4244 25.524 32.0321 23.6046C33.6398 25.6611 36.3729 26.895 39.4275 26.895C42.4821 26.895 45.2151 25.524 46.8228 23.6046C48.4305 25.6611 51.1636 26.895 54.2182 26.895C57.2728 26.895 60.0058 25.524 61.6135 23.6046C63.2212 25.6611 65.9543 26.895 69.0089 26.895C69.9735 26.895 70.7773 26.7579 71.5812 26.6208V63.0893ZM74.7966 19.2174C74.7966 21.9594 72.2243 24.153 69.0089 24.153C65.7935 24.153 63.2212 21.9594 63.2212 19.2174V14.8302H74.7966V19.2174Z" fill="#C09628"/>
<path d="M67.4012 36.2178H42.3213C41.3567 36.2178 40.7136 36.7662 40.7136 37.5888V50.6132C40.7136 51.4358 41.3567 51.9842 42.3213 51.9842H67.4012C68.3658 51.9842 69.0089 51.4358 69.0089 50.6132V37.5888C69.0089 36.7662 68.3658 36.2178 67.4012 36.2178ZM65.7935 49.2422H43.929V38.9598H65.7935V49.2422Z" fill="#C09628"/>
</svg>
